<?xml version="1.0" standalone="no"?>
<!DOCTYPE svg PUBLIC "-//W3C//DTD SVG 20010904//EN"
 "http://www.w3.org/TR/2001/REC-SVG-20010904/DTD/svg10.dtd">
<svg version="1.0" xmlns="http://www.w3.org/2000/svg"
 width="282.000000pt" height="282.000000pt" viewBox="0 0 282.000000 282.000000"
 preserveAspectRatio="xMidYMid meet">
<metadata>
Created by potrace 1.11, written by Peter Selinger 2001-2013
</metadata>
<g transform="translate(0.000000,282.000000) scale(0.100000,-0.100000)"
fill="#000000" stroke="none">
<path d="M1939 2726 c-2 -2 -24 -7 -48 -11 -181 -27 -371 -154 -477 -321 -39
-60 -88 -164 -78 -164 4 0 2 -6 -3 -12 -28 -37 -45 -223 -29 -331 7 -50 34
-140 59 -198 l16 -36 -58 -57 -58 -58 -50 36 c-119 85 -257 129 -408 130 -121
1 -161 -5 -255 -38 -444 -155 -626 -685 -374 -1085 20 -31 126 -146 238 -257
175 -175 208 -203 256 -221 54 -20 71 -20 750 -19 539 2 706 5 745 15 193 51
359 204 418 386 32 98 39 222 17 319 -33 150 -144 301 -277 377 -24 13 -42 27
-40 31 1 4 72 78 157 165 171 173 195 202 239 289 95 191 104 419 23 612 -88
209 -268 367 -487 428 -54 14 -266 30 -276 20z"/>
</g>
</svg>
