<?xml version="1.0" encoding="UTF-8"?>
<svg width="2057px" height="282px" viewBox="0 0 2057 282" version="1.1" xmlns="http://www.w3.org/2000/svg" xmlns:xlink="http://www.w3.org/1999/xlink">
    <!-- Generator: Sketch 53.2 (72643) - https://sketchapp.com -->
    <title>Artboard</title>
    <desc>Created with Sketch.</desc>
    <defs>
        <path d="M343,64 L490.928177,64 L490.928177,88.7515317 L369.79558,88.7515317 L369.79558,150.080327 L481.812155,150.080327 L481.812155,173.456773 L369.79558,173.456773 L369.79558,241.936011 L493,241.936011 L493,266 L343,266 L343,64 Z M633,183 L602.458696,94 L570,183 L633,183 Z M588.348589,64 L619.412662,64 L693,266 L662.902365,266 L642.331045,205.496256 L562.116705,205.496256 L540.16476,266 L512,266 L588.348589,64 Z M735.717085,200.908328 C736.358674,212.367391 739.062472,221.672011 743.82856,228.822466 C752.90246,242.206652 768.896113,248.898644 791.810001,248.898644 C802.075422,248.898644 811.424148,247.431906 819.856459,244.498386 C836.171147,238.814691 844.328368,228.639195 844.328368,213.971595 C844.328368,202.970894 840.891337,195.133012 834.017171,190.457715 C827.051349,185.874089 816.144502,181.886395 801.296303,178.494513 L773.937258,172.306649 C756.064426,168.273059 743.416149,163.827009 735.99205,158.968367 C723.160273,150.534496 716.744481,137.929716 716.744481,121.153648 C716.744481,103.002492 723.022792,88.105933 735.579602,76.4635249 C748.136412,64.8211167 765.917322,59 788.922865,59 C810.095297,59 828.082429,64.1106655 842.884801,74.3321498 C857.687172,84.5536341 865.088247,100.894013 865.088247,123.353777 L839.378993,123.353777 C838.00416,112.536421 835.071227,104.240184 830.580105,98.464816 C822.23945,87.922478 808.078879,82.651388 788.09797,82.651388 C771.966593,82.651388 760.37234,86.0432198 753.314862,92.8269852 C746.257385,99.6107505 742.728699,107.494468 742.728699,116.478373 C742.728699,126.379004 746.853137,133.621023 755.102137,138.204648 C760.509814,141.138168 772.745646,144.805014 791.810001,149.205294 L820.131424,155.668173 C833.788101,158.785038 844.328331,163.047746 851.752431,168.456423 C864.584208,177.898691 871,191.603525 871,209.571336 C871,231.939428 862.865692,247.93604 846.596832,257.561653 C830.327972,267.187266 811.424298,272 789.885244,272 C764.771623,272 745.111803,265.583021 730.905192,252.74887 C716.698582,240.006392 709.732865,222.726384 710.007831,200.908328 L735.717085,200.908328 Z M891,64 L923.07945,64 L981.430863,161.081007 L1039.78228,64 L1072,64 L995.258212,184.594963 L995.258212,266 L967.741788,266 L967.741788,184.594963 L891,64 Z M1188.90564,157 C1201.87206,157 1212.12928,154.434289 1219.67759,149.302789 C1227.2259,144.171289 1231,134.916402 1231,121.537849 C1231,107.151322 1225.72089,97.3466397 1215.16252,92.123506 C1209.51286,89.3744882 1201.96466,88 1192.51769,88 L1125,88 L1125,157 L1188.90564,157 Z M1098,64 L1192.19672,64 C1207.71155,64 1220.50186,66.2459499 1230.56803,70.737917 C1249.68452,79.3551599 1259.24262,95.2601518 1259.24262,118.45337 C1259.24262,130.554179 1256.72612,140.454693 1251.69303,148.155208 C1246.65995,155.855723 1239.61835,162.043544 1230.56803,166.718856 C1238.51015,169.927404 1244.48973,174.14429 1248.50697,179.369639 C1252.5242,184.594989 1254.76366,193.074595 1255.22541,204.808713 L1256.19508,231.89789 C1256.47213,239.598405 1257.11857,245.327869 1258.13443,249.086453 C1259.79673,255.503549 1262.75189,259.628763 1267,261.462219 L1267,266 L1233.2,266 C1232.2765,264.258217 1231.53771,262.012267 1230.98361,259.262083 C1230.42951,256.511899 1229.96776,251.194957 1229.59836,243.311096 L1227.93607,209.621511 C1227.28961,196.420628 1222.34895,187.574336 1213.11393,183.082369 C1207.84997,180.607203 1199.58476,179.369639 1188.31803,179.369639 L1125.56639,179.369639 L1125.56639,266 L1098,266 L1098,64 Z M1386.17039,59 C1422.02811,59 1448.57533,70.4367413 1465.81285,93.310567 C1479.27102,111.152151 1486,133.979887 1486,161.794459 C1486,191.896413 1478.30315,216.920003 1462.90922,236.865979 C1444.84209,260.288777 1419.07838,272 1385.61732,272 C1354.36856,272 1329.80316,261.75268 1311.92039,241.257732 C1295.97338,221.494747 1288,196.516904 1288,166.323454 C1288,139.057853 1294.82116,115.726901 1308.46369,96.3298969 C1325.97774,71.4431745 1351.87972,59 1386.17039,59 Z M1389.29354,248 C1413.48349,248 1430.98184,239.391342 1441.78914,222.173768 C1452.59643,204.956194 1458,185.158564 1458,162.780284 C1458,139.123246 1451.76865,120.079159 1439.30577,105.647452 C1426.84289,91.2157452 1409.80441,84 1388.18982,84 C1367.21907,84 1350.11161,91.1472413 1336.86693,105.441938 C1323.62224,119.736635 1317,140.813005 1317,168.671679 C1317,190.958619 1322.67949,209.751525 1334.03865,225.050961 C1345.39781,240.350397 1363.81592,248 1389.29354,248 Z M1548.93431,65 L1548.93431,189.639257 C1548.93431,204.28124 1551.70006,216.452206 1557.23163,226.15252 C1565.4368,240.794503 1579.26553,248.115385 1598.71824,248.115385 C1622.04304,248.115385 1637.89999,240.199681 1646.28954,224.368037 C1650.80699,215.765872 1653.06569,204.189728 1653.06569,189.639257 L1653.06569,65 L1681,65 L1681,178.246021 C1681,203.04588 1677.63501,222.125928 1670.90493,235.486737 C1658.55108,259.829034 1635.22662,272 1600.93086,272 C1566.63509,272 1543.35673,259.829034 1531.09507,235.486737 C1524.36499,222.125928 1521,203.04588 1521,178.246021 L1521,65 L1548.93431,65 Z M1871,64 L1871,88.0639891 L1802.89597,88.0639891 L1802.89597,266 L1775.10403,266 L1775.10403,88.0639891 L1707,88.0639891 L1707,64 L1871,64 Z M1899,64 L2046.92818,64 L2046.92818,88.7515317 L1925.79558,88.7515317 L1925.79558,150.080327 L2037.81215,150.080327 L2037.81215,173.456773 L1925.79558,173.456773 L1925.79558,241.936011 L2049,241.936011 L2049,266 L1899,266 L1899,64 Z" id="path-1"></path>
        <filter x="-0.7%" y="-5.6%" width="101.4%" height="111.3%" filterUnits="objectBoundingBox" id="filter-2">
            <feMorphology radius="4" operator="dilate" in="SourceAlpha" result="shadowSpreadOuter1"></feMorphology>
            <feOffset dx="0" dy="0" in="shadowSpreadOuter1" result="shadowOffsetOuter1"></feOffset>
            <feComposite in="shadowOffsetOuter1" in2="SourceAlpha" operator="out" result="shadowOffsetOuter1"></feComposite>
            <feColorMatrix values="0 0 0 0 1   0 0 0 0 0.243137255   0 0 0 0 0  0 0 0 1 0" type="matrix" in="shadowOffsetOuter1"></feColorMatrix>
        </filter>
    </defs>
    <g id="Artboard" stroke="none" stroke-width="1" fill="none" fill-rule="evenodd" stroke-linecap="round" stroke-linejoin="bevel">
        <g id="route" transform="translate(26.000000, 26.000000)" fill="#FFFFFF" fill-rule="nonzero" stroke="#FF3E00" stroke-width="26">
            <path d="M208.040262,74.8158781 C195.285166,87.667545 174.560501,87.6667581 161.815762,74.8229607 C149.096643,62.0312172 149.096643,41.3277724 161.80638,28.53237 C174.561281,15.6783408 195.287705,15.6783408 208.033225,28.5229251 C220.751562,41.3138819 220.752344,62.0155672 208.040262,74.815878 Z M152.90847,145.632525 L198.785019,145.425267 L198.785019,147.582641 C218.779162,153.565774 233.292469,172.14105 233.292469,194.08654 C233.292469,216.18402 218.588688,234.858463 198.415661,240.728043 L198.415661,242.688951 L54.6022461,242.688951 C48.0701776,243.817632 41.280229,241.888365 36.3916195,237.00394 L8.53543363,209.229206 C8.09815173,208.788977 7.70843597,208.343155 7.35416246,207.888562 C6.82231513,207.458982 6.31774134,207.013641 5.79886559,206.497702 C-19.2659837,181.512175 -19.2659837,140.972521 5.79703647,115.978887 C30.8398198,91.0054343 71.4290735,91.0054343 96.4700277,115.977064 C100.318453,119.81331 103.575996,124.016231 106.242614,128.473308 C109.80217,112.22217 121.470804,99.0117358 136.802499,93.3589369 C114.500732,68.2293436 115.409823,29.7816389 139.528143,5.73008976 C164.570927,-19.2433633 205.16018,-19.2433633 230.201134,5.72826606 C255.265984,30.7137933 255.265984,71.2534473 230.189457,96.2605309 C229.681268,96.7658288 229.175894,97.2117648 228.643007,97.6420508 C228.284697,98.1009807 227.88432,98.5577374 227.420238,99.0248204 L199.610392,126.753136 C193.889678,132.459572 185.664176,134.112272 178.376717,131.672723 L153.485856,131.672723 C150.026488,131.672723 146.844173,134.989833 146.847022,138.958186 C146.847022,142.455388 149.498859,145.322982 152.90847,145.632525 Z M182.64662,171.498441 L185.843748,171.483997 L185.796719,161.074124 C185.50301,161.066167 185.208322,161.062162 184.912705,161.062162 L172.785019,161.062162 L172.785019,171.257785 L182.64662,171.498441 Z M182.013683,216.688951 L172.415661,216.826652 L172.415661,226.865657 L184.912705,226.865657 C185.080659,226.865657 185.248314,226.864385 185.415661,226.861851 L185.415661,216.688951 L182.013683,216.688951 Z M52.840538,216.688951 L51.460418,216.688951 L49.7528002,217.163369 C51.3496546,216.719723 53.3218366,217.171795 54.7505708,218.593385 L52.840538,216.688951 Z M54.7505708,218.593385 C54.7533648,218.596165 54.7561567,218.598948 54.7589465,218.601736 L54.7505706,218.593384 Z M165.990759,116.102603 L165.990759,105.672723 L153.485856,105.672723 C153.320529,105.672723 153.155494,105.673996 152.990759,105.676532 L152.990759,116.102603 L165.990759,116.102603 Z M183.92916,105.672723 L181.252372,108.341643 C183.001934,106.598 185.601513,106.322451 187.470337,107.393338 L184.467661,105.672723 L183.92916,105.672723 Z M181.252372,108.341643 L181.250613,108.343397 C181.251199,108.342812 181.251785,108.342228 181.252372,108.341643 Z M168.786178,66.5130083 C168.655498,66.3931903 168.50296,66.2565371 168.312399,66.0858219 C167.553179,65.4797966 167.543534,65.4720979 167.263232,65.2809203 C167.249683,65.2704383 167.32845,65.327634 167.669192,65.5750595 L159.835667,75.9498309 L169.014284,66.7436925 C168.937575,66.6672122 168.861539,66.590315 168.786178,66.5130083 Z M167.263232,65.2809203 C167.259626,65.2784604 167.255974,65.2759701 167.252276,65.2734478 C167.246202,65.2687769 167.241532,65.2651857 167.243416,65.2663999 Z M201.146401,66.3115617 C201.016128,66.4486416 200.883777,66.5844808 200.749347,66.7190396 C201.098797,66.3695427 201.477672,66.0405212 201.855196,65.7469234 C202.145828,65.5284632 202.210889,65.4795581 202.26775,65.4395734 C202.270511,65.4380653 202.233573,65.4642466 202.144792,65.5271726 C201.813963,65.7642148 201.490995,66.0133813 201.146401,66.3115617 Z M200.749347,66.7190396 C200.740254,66.7281411 200.731152,66.7372368 200.72204,66.7463266 C200.731097,66.7372033 200.740175,66.7280936 200.749273,66.7189978 Z M202.26775,65.4395734 C202.284151,65.4280406 202.299869,65.4172498 202.320121,65.4033467 C202.310431,65.4100304 202.304772,65.4139332 202.290518,65.4239737 Z M192.494228,74.9428104 L199.218889,83.9694604 L209.643962,76.2030036 L200.466123,66.9960898 L192.494228,74.9428104 Z M184.865869,82.5470794 L175.687714,91.696251 L194.04371,91.6965667 L184.865869,82.5470794 Z M169.424672,67.1535852 L169.09241,66.8223493 L159.914254,76.0289474 L169.137466,85.1904083 L177.038352,77.2362678 L170.347186,68.2545791 C169.905358,67.7172303 169.644329,67.3997674 169.424672,67.1535852 Z M152.129163,86.4168429 C152.267573,86.5239905 152.333052,86.5692486 152.458714,86.6547703 C152.456398,86.6543375 152.39209,86.6077643 152.129163,86.4168429 Z M36.2457326,177.945492 L35.3642302,177.066154 L26.1831471,186.269833 L39.1831471,186.269833 L39.1831471,180.902706 L36.2457326,177.945492 Z M35.1217456,176.829994 C34.6984697,176.428618 34.6433412,176.383711 34.2971525,176.101711 C34.0050255,175.871719 34.0050255,175.871719 33.930227,175.815945 L26.0967017,186.190717 L35.275319,176.984578 C35.223824,176.933237 35.1726329,176.881709 35.1217456,176.829994 Z M67.3639644,176.598064 C67.2475376,176.719895 67.1294625,176.84074 67.0097389,176.960569 C67.2960703,176.674197 67.6080746,176.39726 67.9165513,176.147501 C68.1556345,175.959327 68.2065659,175.919241 68.253923,175.884057 C68.2579497,175.881328 68.2288528,175.903053 68.1589528,175.955246 C67.8956013,176.153493 67.6396853,176.357375 67.3639644,176.598064 Z M68.253923,175.884057 C68.2667423,175.874533 68.2792996,175.865368 68.2952561,175.853722 C68.2883639,175.858764 68.2843407,175.861707 68.273355,175.869875 Z M57.5409706,186.402924 L66.6817848,195.60535 L75.9049966,186.44389 L66.7227498,177.241371 L57.5409706,186.402924 Z M51.1332857,192.796494 L41.9521999,201.957356 L60.3155297,201.956195 L51.1332857,192.796494 Z M18.223624,196.535624 C18.2450347,196.552252 18.2517402,196.557144 18.2631764,196.565488 L18.223624,196.535624 Z M28.2135609,139.290701 C40.9674156,126.450882 61.6865528,126.450882 74.4357155,139.28598 C87.1548347,152.077723 87.1548347,172.781168 74.4450972,185.57657 C61.6901963,198.4306 40.9637722,198.4306 28.218253,185.586015 C15.4991337,172.794272 15.4991337,152.090827 28.2135609,139.290701 Z" id="Shape"></path>
        </g>
        <g id="EASYROUTE" fill-rule="nonzero">
            <use fill="black" fill-opacity="1" filter="url(#filter-2)" xlink:href="#path-1"></use>
            <use fill="#FFFFFF" xlink:href="#path-1"></use>
        </g>
    </g>
</svg>